<svg xmlns="http://www.w3.org/2000/svg" xmlns:xlink="http://www.w3.org/1999/xlink" width="186.376" height="186.376" viewBox="0 0 186.376 186.376">
  <defs>
    <linearGradient id="a" x1="40.376" y1="102.403" x2="71.272" y2="126.639" gradientUnits="userSpaceOnUse">
      <stop offset="0.206" stop-color="#8fffff"/>
      <stop offset="0.881" stop-color="#4ac3ff"/>
    </linearGradient>
    <linearGradient id="b" x1="-6258.37" y1="-2257.776" x2="-6297.459" y2="-2254.041" gradientTransform="translate(-1137.675 -6432.755) rotate(-120)" gradientUnits="userSpaceOnUse">
      <stop offset="0" stop-color="#50fffa"/>
      <stop offset="1" stop-color="#3386ff"/>
    </linearGradient>
    <linearGradient id="c" x1="-3831.077" y1="768.906" x2="-3832.378" y2="788.385" gradientTransform="translate(1306.733 -3577.002) rotate(-60)" gradientUnits="userSpaceOnUse">
      <stop offset="0.184" stop-color="#3e88ff"/>
      <stop offset="0.88" stop-color="#2741ff"/>
    </linearGradient>
    <linearGradient id="d" x1="70.27" y1="53.316" x2="134.704" y2="143.792" gradientTransform="matrix(1, 0, 0, 1, 0, 0)" xlink:href="#b"/>
    <linearGradient id="e" x1="73.459" y1="30.913" x2="149.247" y2="90.364" xlink:href="#a"/>
    <linearGradient id="f" x1="-3774.26" y1="807.072" x2="-3779.797" y2="889.977" gradientTransform="translate(1306.733 -3577.002) rotate(-60)" gradientUnits="userSpaceOnUse">
      <stop offset="0.055" stop-color="#3e88ff"/>
      <stop offset="0.599" stop-color="#2741ff"/>
    </linearGradient>
  </defs>
  <rect width="186.376" height="186.376" fill="#1f1e2d"/>
  <polygon points="37.405 114.658 55.999 125.393 74.593 114.658 55.999 103.922 37.405 114.658" fill="url(#a)"/>
  <polygon points="55.999 146.864 55.999 125.393 37.405 114.658 37.405 136.129 55.999 146.864" fill="url(#b)"/>
  <polygon points="55.999 146.864 74.593 136.129 74.593 114.658 55.999 125.393 55.999 146.864" fill="url(#c)"/>
  <polygon points="130.377 82.448 130.377 146.874 93.183 125.393 74.593 114.654 74.593 50.238 93.183 60.978 130.377 82.448" fill="url(#d)"/>
  <polygon points="74.593 50.238 130.377 82.448 148.971 71.713 93.187 39.502 74.593 50.238" fill="url(#e)"/>
  <polygon points="130.377 146.874 148.971 136.138 148.971 71.713 130.377 82.448 130.377 146.874" fill="url(#f)"/>
</svg>
