<svg xmlns="http://www.w3.org/2000/svg" xmlns:xlink="http://www.w3.org/1999/xlink" width="1710.426" height="409.5" viewBox="0 0 1710.426 409.5">
  <defs>
    <linearGradient id="a" x1="567.668" y1="208.066" x2="595.141" y2="229.618" gradientUnits="userSpaceOnUse">
      <stop offset="0.206" stop-color="#8fffff"/>
      <stop offset="0.881" stop-color="#4ac3ff"/>
    </linearGradient>
    <linearGradient id="b" x1="-6515.601" y1="10168.015" x2="-6550.36" y2="10171.336" gradientTransform="translate(-11499.59 -338.474) rotate(-120)" gradientUnits="userSpaceOnUse">
      <stop offset="0" stop-color="#50fffa"/>
      <stop offset="1" stop-color="#3386ff"/>
    </linearGradient>
    <linearGradient id="c" x1="-139.137" y1="7257.971" x2="-140.294" y2="7275.293" gradientTransform="translate(-5633.492 -3521.089) rotate(-60)" gradientUnits="userSpaceOnUse">
      <stop offset="0.184" stop-color="#3e88ff"/>
      <stop offset="0.88" stop-color="#2741ff"/>
    </linearGradient>
    <linearGradient id="d" x1="594.25" y1="164.417" x2="651.548" y2="244.872" gradientTransform="matrix(1, 0, 0, 1, 0, 0)" xlink:href="#b"/>
    <linearGradient id="e" x1="597.086" y1="144.494" x2="664.48" y2="197.362" xlink:href="#a"/>
    <linearGradient id="f" x1="-88.613" y1="7291.91" x2="-93.537" y2="7365.633" gradientTransform="translate(-5633.492 -3521.089) rotate(-60)" gradientUnits="userSpaceOnUse">
      <stop offset="0.055" stop-color="#3e88ff"/>
      <stop offset="0.599" stop-color="#2741ff"/>
    </linearGradient>
  </defs>
  <g>
    <rect x="128.282" y="30.713" width="1453.863" height="348.075" rx="43.357" fill="#030a1c"/>
    <g>
      <g>
        <polygon points="565.025 218.964 581.56 228.511 598.095 218.964 581.56 209.418 565.025 218.964" fill="url(#a)"/>
        <polygon points="581.56 247.603 581.56 228.511 565.025 218.964 565.025 238.057 581.56 247.603" fill="url(#b)"/>
        <polygon points="581.56 247.603 598.095 238.057 598.095 218.964 581.56 228.511 581.56 247.603" fill="url(#c)"/>
        <polygon points="647.7 190.322 647.7 247.612 614.625 228.511 598.094 218.96 598.094 161.679 614.625 171.23 647.7 190.322" fill="url(#d)"/>
        <polygon points="598.094 161.679 647.7 190.322 664.235 180.776 614.629 152.133 598.094 161.679" fill="url(#e)"/>
        <polygon points="647.7 247.612 664.235 238.066 664.235 180.776 647.7 190.322 647.7 247.612" fill="url(#f)"/>
      </g>
      <g>
        <path d="M754.332,199.007a21.95,21.95,0,0,1,5.908,2.768,17.18,17.18,0,0,1,5.471,5.841,19.292,19.292,0,0,1,2.273,9.965v2.579a21.953,21.953,0,0,1-3.32,12.242,21.368,21.368,0,0,1-9.163,7.808,32,32,0,0,1-13.592,2.708H708.453v-86.1h32.968a33.039,33.039,0,0,1,13.715,2.648,21.216,21.216,0,0,1,9.1,7.5A20.383,20.383,0,0,1,767.5,178.6v2.1a18.826,18.826,0,0,1-2.212,9.656,17.63,17.63,0,0,1-5.23,5.78A22.646,22.646,0,0,1,754.332,199.007Zm-29.638-6.765h15a12.969,12.969,0,0,0,8.3-2.582,8.6,8.6,0,0,0,3.257-7.137v-1.236a8.626,8.626,0,0,0-3.2-7.192,13.1,13.1,0,0,0-8.364-2.522h-15Zm0,35.917h15.25a13.36,13.36,0,0,0,8.548-2.583,8.869,8.869,0,0,0,3.258-7.382v-1.236a8.932,8.932,0,0,0-3.2-7.377A13.294,13.294,0,0,0,739.944,207h-15.25Z" fill="#fff"/>
        <path d="M797.385,156.61v16.646H780.739V156.61Zm-.565,25.3v61.009H781.3V181.906Z" fill="#fff"/>
        <path d="M852.687,228.329v14.589H821.938V194.7H806.686V181.909h15.252V162.964h15.5v18.945h16.728V194.7H837.435v33.628Z" fill="#fff"/>
        <path d="M880.372,214.875q0,7.748,4.8,11.623a20.177,20.177,0,0,0,13.038,3.873q8.364,0,12.483-3.317a10.442,10.442,0,0,0,4.126-8.49,8.217,8.217,0,0,0-2.033-5.781,14.648,14.648,0,0,0-5.9-3.628,75.946,75.946,0,0,0-9.409-2.648l-2.833-.616a71.553,71.553,0,0,1-15.19-4.985,23.813,23.813,0,0,1-9.709-7.933,22.1,22.1,0,0,1-3.384-12.793,23.616,23.616,0,0,1,3.749-13.467,24.11,24.11,0,0,1,10.579-8.61,39.511,39.511,0,0,1,16.052-3.013,40.8,40.8,0,0,1,16.418,3.133,25.461,25.461,0,0,1,11.316,9.356,27.58,27.58,0,0,1,4.119,15.561H912.6a14.657,14.657,0,0,0-1.908-7.933,11.144,11.144,0,0,0-5.473-4.429,23.057,23.057,0,0,0-8.487-1.412q-7.38,0-10.887,2.766a9.111,9.111,0,0,0-3.5,7.563,8.763,8.763,0,0,0,1.655,5.41,12.323,12.323,0,0,0,4.986,3.7,44.239,44.239,0,0,0,8.489,2.582L900.3,192a79.6,79.6,0,0,1,16.051,5.039,26.838,26.838,0,0,1,10.642,8.121,20.872,20.872,0,0,1,3.813,12.918,24.282,24.282,0,0,1-4,13.835,26.7,26.7,0,0,1-11.317,9.356,45.459,45.459,0,0,1-34.87-.186,27.98,27.98,0,0,1-11.931-10.2,28.748,28.748,0,0,1-4.3-15.991Z" fill="#fff"/>
        <path d="M996.225,181.91v61.008h-15.5V196.324H957.952v46.594h-15.5v-86.1h15.5v25.09Z" fill="#fff"/>
        <path d="M1025.59,156.61v16.646h-16.646V156.61Zm-.565,25.3v61.009h-15.517V181.906Z" fill="#fff"/>
        <path d="M1053.867,242.918V194.7h-15.5V181.908h15.5V170.591a13.543,13.543,0,0,1,3.75-10.025,13.237,13.237,0,0,1,9.779-3.748h15.99v12.791h-10.581q-3.444,0-3.442,3.69v8.609h15.99V194.7h-15.99v48.217Z" fill="#fff"/>
        <path d="M1139.508,228.329v14.589h-30.749V194.7h-15.253V181.909h15.253V162.964h15.5v18.945h16.729V194.7h-16.729v33.628Z" fill="#fff"/>
      </g>
    </g>
  </g>
</svg>
