<svg xmlns="http://www.w3.org/2000/svg" xmlns:xlink="http://www.w3.org/1999/xlink" width="964.02" height="447.465" viewBox="0 0 964.02 447.465">
  <defs>
    <linearGradient id="a" x1="164.433" y1="233.373" x2="196.755" y2="258.728" gradientUnits="userSpaceOnUse">
      <stop offset="0.206" stop-color="#8fffff"/>
      <stop offset="0.881" stop-color="#4ac3ff"/>
    </linearGradient>
    <linearGradient id="b" x1="-5738.621" y1="-2357.368" x2="-5779.515" y2="-2353.461" gradientTransform="translate(-667.687 -5900.835) rotate(-120)" gradientUnits="userSpaceOnUse">
      <stop offset="0" stop-color="#50fffa"/>
      <stop offset="1" stop-color="#3386ff"/>
    </linearGradient>
    <linearGradient id="c" x1="-3575.896" y1="671.676" x2="-3577.257" y2="692.054" gradientTransform="translate(1388.175 -3175.368) rotate(-60)" gradientUnits="userSpaceOnUse">
      <stop offset="0.184" stop-color="#3e88ff"/>
      <stop offset="0.88" stop-color="#2741ff"/>
    </linearGradient>
    <linearGradient id="d" x1="195.707" y1="182.02" x2="263.116" y2="276.673" gradientTransform="matrix(1, 0, 0, 1, 0, 0)" xlink:href="#b"/>
    <linearGradient id="e" x1="199.043" y1="158.582" x2="278.33" y2="220.779" xlink:href="#a"/>
    <linearGradient id="f" x1="-3516.456" y1="711.604" x2="-3522.249" y2="798.337" gradientTransform="translate(1388.175 -3175.368) rotate(-60)" gradientUnits="userSpaceOnUse">
      <stop offset="0.055" stop-color="#3e88ff"/>
      <stop offset="0.599" stop-color="#2741ff"/>
    </linearGradient>
  </defs>
  <rect x="68.228" y="73.672" width="827.564" height="300.121" rx="35.557" fill="#1f1e2d"/>
  <g>
    <path d="M389.2,174.017H407.9v18.706H389.2ZM371.05,232.993q2.628,4.407,2.629,11.512v2.678a25.354,25.354,0,0,1-3.837,14.141,24.686,24.686,0,0,1-10.588,9.025,37.017,37.017,0,0,1-15.705,3.127H304.892V173.99h38.089a38.164,38.164,0,0,1,15.847,3.055,24.49,24.49,0,0,1,10.517,8.67,23.56,23.56,0,0,1,3.766,13.43v2.723q0,6.822-2.558,11.157a20.279,20.279,0,0,1-6.041,6.679,26.239,26.239,0,0,1-6.608,3.34,25.6,25.6,0,0,1,6.822,3.2A19.838,19.838,0,0,1,371.05,232.993Zm-47.4-18.072h17.339a14.976,14.976,0,0,0,9.593-2.984,9.939,9.939,0,0,0,3.767-8.244v-1.421a9.973,9.973,0,0,0-3.695-8.314,15.168,15.168,0,0,0-9.665-2.914H323.652Zm31.267,28.567q0-5.544-3.695-8.528t-9.949-2.984H323.652v24.445h17.623q6.11,0,9.878-2.985t3.766-8.527ZM389.6,273.476H407.5V202.983H389.6Zm266.929-80.753H675.23V174.017H656.524Zm.4,80.753h17.908V202.983H656.923ZM547.136,220.464a92.272,92.272,0,0,0-18.547-5.827l-3.269-.711a50.759,50.759,0,0,1-9.806-2.984,14.216,14.216,0,0,1-5.757-4.264,10.122,10.122,0,0,1-1.918-6.253,10.534,10.534,0,0,1,4.05-8.741q4.052-3.2,12.578-3.2a26.614,26.614,0,0,1,9.807,1.635,12.865,12.865,0,0,1,6.324,5.116,16.955,16.955,0,0,1,2.2,9.167v4.264h18.476V204.4q0-10.8-4.761-17.979a29.4,29.4,0,0,0-13.075-10.8A47.068,47.068,0,0,0,524.467,172a45.631,45.631,0,0,0-18.547,3.482,27.806,27.806,0,0,0-12.222,9.949,27.285,27.285,0,0,0-4.335,15.562q0,9.1,3.908,14.781a27.608,27.608,0,0,0,11.228,9.167,82.735,82.735,0,0,0,17.552,5.756l3.269.71a88.069,88.069,0,0,1,10.872,3.056,16.972,16.972,0,0,1,6.822,4.192,9.5,9.5,0,0,1,2.345,6.68,12.051,12.051,0,0,1-4.761,9.807q-4.762,3.837-14.425,3.837-9.524,0-15.065-4.477t-5.543-13.43v-3.98H487.089v3.98q0,10.8,4.974,18.475a32.311,32.311,0,0,0,13.786,11.8,47.481,47.481,0,0,0,20.324,4.121q11.511,0,19.968-3.908a30.877,30.877,0,0,0,13.075-10.8,28.054,28.054,0,0,0,4.619-15.989q0-9.094-4.406-14.923A30.946,30.946,0,0,0,547.136,220.464ZM456.724,181.1H438.767v21.887H421.1v16.654h17.668v54.09H474.4v-16.9H456.724V219.636H476.1V202.982h-19.38ZM802.7,219.636V202.982H783.316V181.1H765.359v21.887H747.691v16.654h17.668v54.09h35.628v-16.9H783.316V219.636Zm-168.32-16.654H596.237V173.99H578.33v99.486h17.907v-53.84h26.317v53.84h17.908V202.983h-6.087Zm88.661-12.338h16.2V173.99h-34.11v28.992H686.864v16.654h18.264v53.838h17.908V219.636h18.833V202.982H723.036Z" fill="#fff"/>
    <g>
      <polygon points="161.324 246.194 180.777 257.425 200.23 246.194 180.777 234.963 161.324 246.194" fill="url(#a)"/>
      <polygon points="180.777 279.887 180.777 257.425 161.324 246.194 161.324 268.656 180.777 279.887" fill="url(#b)"/>
      <polygon points="180.777 279.887 200.23 268.656 200.23 246.194 180.777 257.425 180.777 279.887" fill="url(#c)"/>
      <polygon points="258.589 212.497 258.589 279.897 219.677 257.425 200.229 246.189 200.229 178.799 219.677 190.035 258.589 212.497" fill="url(#d)"/>
      <polygon points="200.229 178.799 258.589 212.497 278.042 201.266 219.682 167.568 200.229 178.799" fill="url(#e)"/>
      <polygon points="258.589 279.897 278.042 268.666 278.042 201.266 258.589 212.497 258.589 279.897" fill="url(#f)"/>
    </g>
  </g>
</svg>
