<svg xmlns="http://www.w3.org/2000/svg" xmlns:xlink="http://www.w3.org/1999/xlink" width="186.4" height="186.4" viewBox="0 0 186.376 186.376">
  <defs>
    <linearGradient id="a" x1="40.376" y1="102.403" x2="71.272" y2="126.639" gradientUnits="userSpaceOnUse">
      <stop offset="0.2" stop-color="#8fffff"/>
      <stop offset="0.9" stop-color="#4ac3ff"/>
    </linearGradient>
    <linearGradient id="b" x1="-6258.37" y1="-2257.776" x2="-6297.459" y2="-2254.041" gradientTransform="translate(-1137.675 -6432.755) rotate(-120)" gradientUnits="userSpaceOnUse">
      <stop offset="0" stop-color="#50fffa"/>
      <stop offset="1" stop-color="#3386ff"/>
    </linearGradient>
    <linearGradient id="c" x1="-3831.077" y1="768.906" x2="-3832.378" y2="788.385" gradientTransform="translate(1306.733 -3577.002) rotate(-60)" gradientUnits="userSpaceOnUse">
      <stop offset="0.2" stop-color="#3e88ff"/>
      <stop offset="0.9" stop-color="#2741ff"/>
    </linearGradient>
    <linearGradient id="d" x1="70.27" y1="53.316" x2="134.704" y2="143.792" gradientTransform="matrix(1, 0, 0, 1, 0, 0)" xlink:href="#b"/>
    <linearGradient id="e" x1="73.459" y1="30.913" x2="149.247" y2="90.364" xlink:href="#a"/>
    <linearGradient id="f" x1="-3774.26" y1="807.072" x2="-3779.797" y2="889.977" gradientTransform="translate(1306.733 -3577.002) rotate(-60)" gradientUnits="userSpaceOnUse">
      <stop offset="0.1" stop-color="#3e88ff"/>
      <stop offset="0.6" stop-color="#2741ff"/>
    </linearGradient>
  </defs>
  <polygon points="37.4,114.7 56,125.4 74.6,114.7 56,103.9 37.4,114.7" fill="url(#a)"/>
  <polygon points="56,146.9 56,125.4 37.4,114.7 37.4,136.1 56,146.9" fill="url(#b)"/>
  <polygon points="56,146.9 74.6,136.1 74.6,114.7 56,125.4 56,146.9" fill="url(#c)"/>
  <polygon points="130.4,82.4 130.4,146.9 93.2,125.4 74.6,114.7 74.6,50.2 93.2,61 130.4,82.4" fill="url(#d)"/>
  <polygon points="74.6,50.2 130.4,82.4 149,71.7 93.2,39.5 74.6,50.2" fill="url(#e)"/>
  <polygon points="130.4,146.9 149,136.1 149,71.7 130.4,82.4 130.4,146.9" fill="url(#f)"/>
  <polygon points="37.4,114.7 56,125.4 74.6,114.7 56,103.9 37.4,114.7" fill="url(#a)"/>
  <polygon points="56,146.9 56,125.4 37.4,114.7 37.4,136.1 56,146.9" fill="url(#b)"/>
  <polygon points="56,146.9 74.6,136.1 74.6,114.7 56,125.4 56,146.9" fill="url(#c)"/>
  <polygon points="130.4,82.4 130.4,146.9 93.2,125.4 74.6,114.7 74.6,50.2 93.2,61 130.4,82.4" fill="url(#d)"/>
  <polygon points="74.6,50.2 130.4,82.4 149,71.7 93.2,39.5 74.6,50.2" fill="url(#e)"/>
  <polygon points="130.4,146.9 149,136.1 149,71.7 130.4,82.4 130.4,146.9" fill="url(#f)"/>
</svg>
