<svg xmlns="http://www.w3.org/2000/svg" xmlns:xlink="http://www.w3.org/1999/xlink" width="186.38" height="179.36291" viewBox="0 0 186.38 179.36291">
  <defs>
    <linearGradient id="a" x1="98.26039" y1="183.17119" x2="86.05847" y2="0.47657" gradientUnits="userSpaceOnUse">
      <stop offset="0.1" stop-color="#3e88ff"/>
      <stop offset="0.6" stop-color="#2741ff"/>
    </linearGradient>
    <linearGradient id="b" x1="4.96572" y1="73.85372" x2="56.55651" y2="33.38394" gradientTransform="matrix(1.00013, 0, 0, -1.00013, -0.02556, 178.95688)" gradientUnits="userSpaceOnUse">
      <stop offset="0.2" stop-color="#8fffff"/>
      <stop offset="0.9" stop-color="#4ac3ff"/>
    </linearGradient>
    <linearGradient id="c" x1="-6150.80364" y1="2453.67799" x2="-6216.07504" y2="2447.44144" gradientTransform="matrix(-0.50006, -0.86614, -0.86614, 0.50006, -952.53959, -6426.61264)" gradientUnits="userSpaceOnUse">
      <stop offset="0" stop-color="#50fffa"/>
      <stop offset="1" stop-color="#3386ff"/>
    </linearGradient>
    <linearGradient id="d" x1="-3803.08285" y1="-560.49104" x2="-3805.25533" y2="-593.01749" gradientTransform="matrix(0.50006, -0.86614, -0.86614, -0.50006, 1449.17766, -3431.00515)" gradientUnits="userSpaceOnUse">
      <stop offset="0.2" stop-color="#3e88ff"/>
      <stop offset="0.9" stop-color="#2741ff"/>
    </linearGradient>
    <linearGradient id="e" x1="54.9086" y1="155.91085" x2="162.56112" y2="4.74887" gradientTransform="matrix(1.00013, 0, 0, -1.00013, -0.02556, 178.95688)" xlink:href="#c"/>
    <linearGradient id="f" x1="60.27334" y1="193.312" x2="186.82573" y2="94.03947" xlink:href="#b"/>
    <linearGradient id="g" x1="-3708.14408" y1="-624.22578" x2="-3717.39006" y2="-762.66222" gradientTransform="matrix(0.50006, -0.86614, -0.86614, -0.50006, 1449.17766, -3431.00515)" xlink:href="#a"/>
  </defs>
  <path d="M186.4,53.779v107.55l-31.06,18.03-62.13-35.9-31.06-17.87v-107.72l31.06-17.87ZM.02,125.589v35.74l31.07,18.03,31.06-18.03v-35.74l-31.06-18.04Z" transform="translate(-0.02002 0.00107)" style="fill: url(#a)"/>
  <polygon points="0.004 125.588 31.067 143.457 62.129 125.588 31.067 107.551 0.004 125.588" style="fill: url(#b)"/>
  <polygon points="31.067 179.363 31.067 143.457 0.004 125.588 0.004 161.327 31.067 179.363" style="fill: url(#c)"/>
  <polygon points="31.067 179.363 62.129 161.327 62.129 125.588 31.067 143.457 31.067 179.363" style="fill: url(#d)"/>
  <polygon points="155.317 71.646 155.317 179.363 93.192 143.457 62.129 125.588 62.129 17.87 93.192 35.907 155.317 71.646" style="fill: url(#e)"/>
  <polygon points="62.129 17.87 155.317 71.646 186.38 53.776 93.192 0.001 62.129 17.87" style="fill: url(#f)"/>
  <polygon points="155.317 179.363 186.38 161.327 186.38 53.776 155.317 71.646 155.317 179.363" style="fill: url(#g)"/>
  <polygon points="0.004 125.588 31.067 143.457 62.129 125.588 31.067 107.551 0.004 125.588" style="fill: url(#b)"/>
  <polygon points="31.067 179.363 31.067 143.457 0.004 125.588 0.004 161.327 31.067 179.363" style="fill: url(#c)"/>
  <polygon points="31.067 179.363 62.129 161.327 62.129 125.588 31.067 143.457 31.067 179.363" style="fill: url(#d)"/>
  <polygon points="155.317 71.646 155.317 179.363 93.192 143.457 62.129 125.588 62.129 17.87 93.192 35.907 155.317 71.646" style="fill: url(#e)"/>
  <polygon points="62.129 17.87 155.317 71.646 186.38 53.776 93.192 0.001 62.129 17.87" style="fill: url(#f)"/>
  <polygon points="155.317 179.363 186.38 161.327 186.38 53.776 155.317 71.646 155.317 179.363" style="fill: url(#g)"/>
</svg>
